<?xml version="1.0" standalone="no"?>
<!DOCTYPE svg PUBLIC "-//W3C//DTD SVG 20010904//EN"
 "http://www.w3.org/TR/2001/REC-SVG-20010904/DTD/svg10.dtd">
<svg version="1.0" xmlns="http://www.w3.org/2000/svg"
 width="1200.000000pt" height="1200.000000pt" viewBox="0 0 1200.000000 1200.000000"
 preserveAspectRatio="xMidYMid meet">
<metadata>
Created by potrace 1.14, written by Peter Selinger 2001-2017
</metadata>
<g transform="translate(0.000000,1200.000000) scale(0.100000,-0.100000)"
fill="#000000" stroke="none">
<path d="M5749 10256 c-2 -2 -48 -7 -101 -10 -53 -4 -103 -8 -110 -10 -7 -3
-42 -7 -78 -11 -36 -3 -105 -13 -155 -21 -49 -8 -103 -17 -120 -20 -110 -19
-411 -100 -555 -150 -41 -14 -79 -27 -85 -28 -5 -2 -19 -7 -30 -11 -11 -5 -69
-28 -130 -53 -357 -145 -713 -354 -1030 -607 -188 -150 -380 -331 -528 -500
-39 -44 -76 -85 -81 -91 -6 -6 -22 -26 -36 -44 -14 -18 -30 -38 -35 -44 -56
-60 -262 -359 -341 -496 -67 -115 -65 -112 -122 -225 -103 -205 -173 -369
-241 -574 -37 -111 -106 -356 -117 -419 -3 -13 -11 -52 -19 -86 -7 -33 -16
-79 -20 -101 -3 -23 -8 -52 -10 -65 -3 -14 -7 -45 -10 -70 -3 -25 -10 -76 -15
-115 -18 -128 -24 -258 -24 -495 0 -257 7 -387 30 -532 2 -15 6 -47 9 -70 3
-34 35 -213 61 -343 11 -58 88 -325 123 -425 172 -502 422 -944 772 -1365 91
-109 356 -379 458 -466 35 -30 69 -59 75 -64 102 -92 368 -279 556 -392 198
-119 682 -342 779 -360 13 -2 32 -8 41 -13 15 -8 252 -78 289 -85 9 -2 17 -4
19 -5 2 -3 2 -3 57 -15 22 -4 45 -9 50 -11 6 -1 35 -7 65 -13 30 -6 66 -13 80
-16 65 -13 139 -25 180 -30 76 -9 134 -16 160 -20 166 -25 710 -25 875 0 17 2
50 7 75 10 107 12 140 17 225 31 50 8 119 22 155 30 36 9 76 18 90 20 14 3 59
15 100 26 41 11 89 24 105 28 17 4 73 22 125 40 52 18 99 33 105 34 5 1 57 21
115 43 381 151 735 347 1022 568 14 11 41 31 59 45 18 14 37 30 43 35 6 6 20
17 32 25 41 29 293 255 314 282 3 3 39 41 80 85 41 43 98 105 125 137 28 33
60 70 73 82 12 13 22 27 22 33 0 5 4 11 9 13 30 11 269 360 384 558 84 147
247 484 247 513 0 8 3 17 7 21 4 3 13 23 20 44 39 104 65 179 68 195 2 9 7 21
10 27 27 43 139 523 160 685 4 28 8 64 11 80 22 168 29 286 28 545 0 302 -10
432 -55 700 -163 978 -675 1880 -1433 2525 -161 137 -535 405 -565 405 -6 0
-11 5 -11 10 0 6 -4 10 -10 10 -5 0 -31 13 -57 28 -93 55 -261 141 -364 187
-57 25 -113 50 -124 55 -94 44 -399 146 -550 184 -137 34 -358 80 -445 91 -25
3 -56 8 -70 10 -14 2 -56 7 -95 11 -38 3 -79 9 -90 11 -24 6 -620 14 -626 9z
m476 -261 c66 -3 136 -7 155 -10 19 -2 62 -6 95 -10 70 -7 92 -10 200 -30 114
-20 144 -26 252 -49 132 -28 500 -149 633 -208 79 -36 375 -181 380 -187 3 -3
25 -17 50 -30 112 -61 316 -198 459 -310 629 -490 1105 -1165 1346 -1911 52
-161 112 -398 131 -517 3 -19 8 -45 10 -57 2 -11 6 -34 9 -51 2 -16 7 -52 11
-80 4 -27 8 -61 10 -75 26 -194 26 -772 0 -906 -2 -11 -7 -47 -10 -80 -20
-188 -94 -508 -167 -728 -52 -152 -160 -418 -199 -488 -5 -9 -25 -47 -44 -85
-104 -203 -284 -483 -422 -652 -141 -175 -293 -336 -453 -480 -40 -36 -79 -71
-85 -76 -35 -32 -171 -139 -236 -185 -41 -30 -77 -57 -80 -60 -3 -4 -51 -35
-107 -71 -490 -307 -1010 -508 -1513 -585 -25 -3 -53 -8 -64 -10 -10 -2 -44
-6 -75 -9 -31 -4 -67 -8 -81 -11 -160 -25 -689 -25 -875 2 -16 2 -48 6 -70 8
-82 9 -139 17 -145 21 -3 2 -26 6 -50 10 -25 3 -82 15 -128 26 -46 10 -96 21
-110 24 -86 15 -439 129 -562 182 -19 8 -44 19 -55 23 -11 5 -85 40 -165 78
-217 105 -372 197 -600 357 -255 178 -555 463 -779 738 -232 286 -473 698
-595 1017 -26 69 -52 134 -56 145 -37 86 -140 463 -155 565 -4 24 -8 47 -10
50 -1 3 -6 28 -9 55 -4 28 -9 57 -11 65 -2 8 -6 42 -10 74 -3 32 -7 62 -9 65
-11 18 -21 246 -21 466 0 225 6 342 20 445 3 19 7 55 10 80 24 239 114 594
227 894 152 401 398 818 672 1141 28 33 62 73 76 89 47 55 275 281 344 341 38
33 74 65 80 70 6 6 29 23 51 40 22 16 53 41 68 55 53 47 332 235 437 294 36
20 72 41 80 46 39 26 329 164 421 201 173 69 428 152 538 175 12 3 53 12 90
20 95 23 176 38 261 50 19 2 44 6 56 8 11 2 52 7 90 11 38 4 77 9 88 11 10 2
84 6 165 10 80 3 147 7 148 8 4 3 136 -1 288 -9z"/>
<path d="M5847 9953 c-1 0 -49 -4 -107 -8 -128 -8 -150 -10 -220 -21 -30 -4
-58 -7 -62 -6 -7 2 -247 -41 -295 -53 -13 -3 -31 -7 -40 -9 -61 -14 -156 -38
-203 -52 -30 -8 -62 -17 -70 -19 -8 -2 -78 -26 -155 -53 -127 -45 -182 -66
-240 -92 -38 -16 -350 -171 -370 -183 -11 -7 -47 -28 -80 -47 -196 -112 -414
-270 -619 -450 -59 -51 -285 -277 -331 -330 -26 -30 -57 -66 -69 -80 -109
-123 -296 -390 -402 -575 -73 -127 -205 -389 -219 -435 -1 -3 -5 -12 -8 -20
-12 -27 -79 -205 -81 -215 -2 -5 -6 -17 -9 -25 -7 -18 -37 -117 -66 -215 -26
-87 -67 -266 -74 -320 -3 -22 -10 -60 -16 -85 -5 -25 -12 -70 -15 -100 -3 -30
-8 -64 -10 -75 -2 -11 -7 -63 -11 -115 -4 -52 -9 -111 -11 -130 -4 -48 -4
-426 1 -475 2 -22 6 -74 9 -115 4 -42 8 -84 10 -95 2 -11 7 -47 11 -80 4 -32
8 -66 10 -75 1 -8 6 -35 11 -60 4 -25 8 -47 9 -50 1 -3 5 -25 9 -50 52 -296
183 -672 346 -995 264 -524 636 -979 1095 -1339 78 -61 391 -276 403 -276 4 0
27 -14 52 -31 40 -27 290 -153 412 -208 236 -105 604 -217 838 -255 19 -3 46
-8 60 -11 28 -6 142 -22 210 -29 161 -18 221 -21 445 -21 244 0 341 5 495 25
128 17 144 19 165 23 11 3 61 12 110 22 162 30 533 134 587 165 10 6 23 10 30
10 7 1 31 9 53 20 22 11 43 19 47 20 4 0 31 11 60 23 29 13 55 24 58 25 29 9
309 154 390 202 182 109 386 251 506 352 302 254 545 518 756 823 82 119 202
324 273 465 69 135 155 333 155 353 0 7 4 17 9 23 22 23 143 434 170 574 6 30
13 69 16 85 16 78 44 286 50 364 4 47 9 102 11 121 6 62 6 413 -1 500 -8 120
-42 386 -60 470 -2 14 -10 50 -16 80 -33 164 -154 573 -179 605 -4 6 -13 28
-20 50 -26 82 -127 292 -222 463 -73 131 -224 364 -239 370 -5 2 -9 8 -9 13 0
11 -131 178 -221 282 -119 137 -356 366 -477 462 -14 11 -48 38 -76 60 -413
327 -966 595 -1491 720 -55 14 -113 27 -130 30 -16 2 -41 7 -55 10 -73 14
-115 21 -190 31 -19 2 -53 7 -75 10 -94 14 -308 27 -483 28 -79 1 -144 0 -145
-1z m413 -77 c36 -3 95 -8 131 -11 36 -3 76 -8 90 -10 13 -3 44 -8 69 -11 25
-3 56 -7 70 -10 14 -2 41 -7 60 -10 61 -10 267 -53 290 -62 8 -3 20 -6 25 -7
6 -2 30 -8 55 -15 25 -7 45 -12 45 -11 0 7 339 -117 412 -150 23 -10 45 -19
48 -19 10 0 319 -156 362 -183 24 -15 47 -27 53 -27 5 0 10 -4 10 -10 0 -5 5
-10 10 -10 6 0 23 -9 38 -19 15 -10 59 -39 97 -64 97 -62 262 -184 370 -275
159 -133 411 -393 534 -550 62 -78 201 -271 201 -277 0 -4 11 -21 24 -38 81
-108 260 -452 340 -652 49 -124 104 -281 112 -324 3 -14 8 -29 11 -34 3 -5 9
-23 14 -41 24 -94 41 -163 45 -181 2 -11 6 -31 9 -45 11 -53 16 -78 30 -155 7
-44 17 -100 20 -125 3 -25 8 -56 10 -70 4 -26 16 -151 21 -210 4 -49 4 -458 0
-500 -2 -19 -6 -71 -10 -116 -4 -44 -8 -92 -11 -105 -2 -13 -6 -46 -9 -74 -13
-111 -66 -363 -103 -495 -23 -82 -84 -271 -98 -305 -6 -16 -27 -68 -45 -115
-106 -273 -331 -666 -506 -888 -22 -27 -50 -64 -64 -82 -14 -18 -29 -38 -35
-44 -5 -6 -44 -50 -85 -96 -91 -103 -252 -266 -339 -340 -35 -30 -69 -60 -75
-65 -16 -15 -118 -96 -152 -122 -258 -192 -446 -303 -764 -451 -252 -117 -654
-238 -920 -278 -8 -1 -31 -4 -50 -7 -211 -34 -320 -42 -600 -42 -213 0 -363 7
-430 19 -14 2 -54 8 -90 11 -82 9 -88 10 -125 18 -16 4 -46 9 -65 12 -19 3
-46 8 -60 10 -14 3 -35 7 -47 9 -134 26 -422 115 -608 188 -121 48 -353 156
-425 198 -176 103 -246 147 -350 218 -69 47 -127 88 -130 92 -3 3 -33 27 -67
53 -34 26 -68 53 -75 60 -7 6 -42 37 -77 67 -102 87 -275 262 -396 400 -327
374 -606 884 -760 1386 -43 144 -49 166 -61 224 -3 14 -11 50 -19 80 -7 30
-16 75 -20 100 -7 45 -11 65 -19 110 -3 14 -8 50 -12 80 -4 30 -8 66 -10 80
-4 27 -13 127 -19 200 -6 70 -5 428 0 495 17 202 24 267 40 360 8 44 17 98 20
120 4 22 10 56 15 75 5 19 11 49 14 65 18 101 141 494 186 590 5 11 30 67 55
125 26 58 51 109 56 114 5 6 9 18 9 27 0 9 7 22 15 29 9 7 14 15 11 17 -13 13
253 440 351 563 190 239 182 230 368 415 83 83 175 170 204 195 30 25 59 50
65 55 44 41 338 255 350 255 4 0 12 5 19 10 42 35 205 129 363 208 299 151
739 299 1002 338 20 3 45 7 54 10 23 7 39 9 193 30 68 9 106 12 210 20 55 3
101 7 102 8 4 3 367 -3 423 -8z"/>
<path d="M5957 9844 c-1 -1 -65 -5 -142 -8 -77 -4 -153 -8 -170 -10 -32 -4
-144 -16 -185 -21 -14 -2 -88 -15 -165 -29 -118 -22 -177 -36 -347 -81 -10 -3
-26 -7 -35 -9 -171 -42 -619 -233 -790 -337 -36 -21 -67 -39 -68 -39 -7 0
-174 -108 -255 -165 -102 -71 -258 -193 -319 -249 -164 -151 -260 -246 -334
-331 -19 -22 -49 -56 -66 -75 -91 -101 -305 -401 -379 -530 -72 -127 -92 -164
-129 -240 -61 -126 -109 -232 -118 -260 -4 -14 -11 -29 -15 -35 -4 -5 -33 -84
-63 -175 -75 -220 -162 -589 -173 -724 -1 -23 -5 -59 -9 -81 -27 -192 -27
-692 0 -865 2 -14 7 -52 10 -85 3 -33 8 -67 10 -75 2 -8 7 -31 10 -50 3 -19 7
-46 10 -60 3 -14 7 -40 10 -59 3 -19 8 -37 10 -41 2 -4 7 -22 10 -41 3 -19 8
-42 11 -51 3 -9 7 -27 9 -40 9 -44 67 -234 107 -348 76 -217 192 -466 302
-650 31 -51 56 -94 56 -96 0 -12 273 -390 300 -414 3 -3 30 -34 60 -70 69 -81
283 -296 375 -376 68 -59 239 -194 285 -224 12 -8 41 -29 64 -46 37 -27 171
-111 286 -179 79 -46 341 -172 450 -215 161 -65 253 -96 430 -145 8 -2 31 -9
50 -15 19 -6 51 -13 70 -16 19 -3 49 -9 65 -14 17 -5 50 -12 75 -16 25 -4 47
-8 50 -9 3 -1 28 -5 55 -10 28 -4 58 -9 69 -11 10 -2 44 -6 75 -9 31 -3 67 -8
81 -10 140 -25 672 -25 845 0 82 12 233 35 260 40 83 15 285 62 350 82 112 34
272 86 300 98 17 7 82 34 145 60 137 57 299 137 405 200 42 25 78 45 80 45 18
0 383 259 459 325 6 6 45 39 86 75 85 73 312 300 380 380 59 69 198 248 219
280 8 14 18 27 22 30 16 13 158 243 217 350 41 75 132 257 132 263 0 3 13 34
29 69 80 175 173 462 220 678 66 300 86 502 85 845 -1 276 -10 394 -49 635 -5
33 -43 218 -51 250 -4 18 -24 91 -28 105 -1 6 -8 30 -15 55 -72 266 -225 620
-381 885 -363 616 -911 1135 -1540 1458 -109 56 -303 147 -325 152 -13 3 -64
22 -90 35 -20 9 -169 60 -189 65 -6 1 -18 5 -26 8 -15 6 -197 55 -228 62 -9 2
-39 9 -67 15 -70 16 -68 16 -206 39 -68 11 -151 23 -184 26 -33 4 -71 8 -85
11 -14 2 -92 7 -175 10 -82 3 -167 7 -188 8 -21 1 -39 1 -40 0z"/>
</g>
</svg>
